<svg width="26" height="26" xmlns="http://www.w3.org/2000/svg"><defs><filter x="0%" y="0%" width="100%" height="100%" filterUnits="objectBoundingBox" id="b"><feGaussianBlur in="SourceGraphic"/></filter><filter x="0%" y="0%" width="100%" height="100%" filterUnits="objectBoundingBox" id="c"><feGaussianBlur in="SourceGraphic"/></filter><linearGradient x1="2.757%" y1="47.581%" x2="100%" y2="47.581%" id="a"><stop stop-color="#FFF" offset="0%"/><stop offset="100%"/></linearGradient></defs><g fill="none" fill-rule="evenodd"><path d="M2.229 10.4H10.4v5.2H5.571a.371.371 0 00-.371.371v4.458c0 .205.166.371.371.371h4.458a.371.371 0 00.371-.371v-18.2C10.4.998 11.398 0 12.629 0H23.77C25.002 0 26 .998 26 2.229V13.37c0 1.231-.998 2.229-2.229 2.229H15.6v-5.2h4.829a.371.371 0 00.371-.371V5.57a.371.371 0 00-.371-.371H15.97a.371.371 0 00-.371.371v18.2c0 1.231-.998 2.229-2.229 2.229H2.23A2.229 2.229 0 010 23.771V12.63C0 11.398.998 10.4 2.229 10.4z" fill="#FFF"/><path fill-opacity=".05" fill="url(#a)" transform="rotate(-180 17.829 13)" d="M15.6 10.4h4.457v5.2H15.6z"/><path fill-opacity=".05" fill="url(#a)" transform="matrix(1 0 0 -1 0 26)" d="M5.943 10.4H10.4v5.2H5.943z"/><rect fill="#FFF" filter="url(#b)" width="5.2" height="5.2" rx=".743"/><rect fill="#FFF" filter="url(#c)" x="20.8" y="20.8" width="5.2" height="5.2" rx=".743"/></g></svg>